<mxfile host="app.diagrams.net" modified="2024-04-19T08:03:56.836Z" agent="Mozilla/5.0 (X11; Ubuntu; Linux x86_64; rv:125.0) Gecko/20100101 Firefox/125.0" etag="G1aAFGx-YwSjC3wzwDqO" version="24.2.5" type="device">
  <diagram name="Страница — 1" id="6C47iCfQbLZ3kEDGV9bK">
    <mxGraphModel dx="1434" dy="711" grid="1" gridSize="10" guides="1" tooltips="1" connect="1" arrows="1" fold="1" page="1" pageScale="1" pageWidth="827" pageHeight="1169" math="0" shadow="0">
      <root>
        <mxCell id="0" />
        <mxCell id="1" parent="0" />
        <mxCell id="xxCL4NgvebpRf6q6_67u-75" value="" style="rounded=1;whiteSpace=wrap;html=1;fillColor=none;strokeWidth=2;" parent="1" vertex="1">
          <mxGeometry x="31" y="40" width="770" height="160" as="geometry" />
        </mxCell>
        <mxCell id="xxCL4NgvebpRf6q6_67u-1" value="" style="shape=datastore;whiteSpace=wrap;html=1;strokeWidth=3;fillColor=none;" parent="1" vertex="1">
          <mxGeometry x="738" y="250.5" width="70" height="70" as="geometry" />
        </mxCell>
        <mxCell id="xxCL4NgvebpRf6q6_67u-2" value="" style="sketch=0;outlineConnect=0;fontColor=#232F3E;gradientColor=none;fillColor=#000000;strokeColor=none;dashed=0;verticalLabelPosition=bottom;verticalAlign=top;align=center;html=1;fontSize=12;fontStyle=0;aspect=fixed;pointerEvents=1;shape=mxgraph.aws4.servers;strokeWidth=0;" parent="1" vertex="1">
          <mxGeometry x="586" y="251" width="69" height="69" as="geometry" />
        </mxCell>
        <mxCell id="xxCL4NgvebpRf6q6_67u-6" value="" style="sketch=0;outlineConnect=0;dashed=0;verticalLabelPosition=bottom;verticalAlign=top;align=center;html=1;fontSize=12;fontStyle=0;aspect=fixed;pointerEvents=1;shape=mxgraph.aws4.client;fillColor=#000000;" parent="1" vertex="1">
          <mxGeometry x="34" y="247.5" width="78" height="76" as="geometry" />
        </mxCell>
        <mxCell id="xxCL4NgvebpRf6q6_67u-11" value="" style="shape=datastore;whiteSpace=wrap;html=1;strokeWidth=3;fillColor=none;" parent="1" vertex="1">
          <mxGeometry x="551" y="115" width="70" height="70" as="geometry" />
        </mxCell>
        <mxCell id="xxCL4NgvebpRf6q6_67u-12" value="" style="outlineConnect=0;fontColor=#232F3E;gradientColor=none;fillColor=#000000;strokeColor=none;dashed=0;verticalLabelPosition=bottom;verticalAlign=top;align=center;html=1;fontSize=12;fontStyle=0;aspect=fixed;pointerEvents=1;shape=mxgraph.aws4.servers;strokeWidth=0;fillStyle=auto;" parent="1" vertex="1">
          <mxGeometry x="211" y="115" width="69" height="69" as="geometry" />
        </mxCell>
        <mxCell id="xxCL4NgvebpRf6q6_67u-13" value="" style="sketch=0;outlineConnect=0;fontColor=#232F3E;gradientColor=none;fillColor=#000000;strokeColor=none;dashed=0;verticalLabelPosition=bottom;verticalAlign=top;align=center;html=1;fontSize=12;fontStyle=0;aspect=fixed;pointerEvents=1;shape=mxgraph.aws4.client;" parent="1" vertex="1">
          <mxGeometry x="34" y="367" width="78" height="76" as="geometry" />
        </mxCell>
        <mxCell id="xxCL4NgvebpRf6q6_67u-17" value="&lt;p style=&quot;font-size: 20px;&quot;&gt;&lt;font style=&quot;font-size: 20px;&quot; face=&quot;Helvetica&quot;&gt;&lt;font style=&quot;font-size: 20px;&quot;&gt;OSS 1&lt;/font&gt;&lt;/font&gt;&lt;font style=&quot;font-size: 20px;&quot; face=&quot;p2W9_qqDEX6iPoN3xxP2&quot;&gt;&lt;br&gt;&lt;/font&gt;&lt;/p&gt;" style="text;strokeColor=none;align=center;fillColor=none;html=1;verticalAlign=middle;whiteSpace=wrap;rounded=0;" parent="1" vertex="1">
          <mxGeometry x="651" y="260" width="90" height="30" as="geometry" />
        </mxCell>
        <mxCell id="xxCL4NgvebpRf6q6_67u-30" value="" style="shape=datastore;whiteSpace=wrap;html=1;strokeWidth=3;fillColor=none;" parent="1" vertex="1">
          <mxGeometry x="738" y="365.25" width="70" height="70" as="geometry" />
        </mxCell>
        <mxCell id="xxCL4NgvebpRf6q6_67u-32" value="" style="sketch=0;outlineConnect=0;fontColor=#232F3E;gradientColor=none;fillColor=#000000;strokeColor=none;dashed=0;verticalLabelPosition=bottom;verticalAlign=top;align=center;html=1;fontSize=12;fontStyle=0;aspect=fixed;pointerEvents=1;shape=mxgraph.aws4.servers;strokeWidth=0;" parent="1" vertex="1">
          <mxGeometry x="586" y="365.75" width="69" height="69" as="geometry" />
        </mxCell>
        <mxCell id="xxCL4NgvebpRf6q6_67u-33" value="&lt;font style=&quot;font-size: 20px;&quot; face=&quot;Helvetica&quot;&gt;&lt;font style=&quot;font-size: 20px;&quot;&gt;OSS &lt;/font&gt;2&lt;br&gt;&lt;/font&gt;" style="text;strokeColor=none;align=center;fillColor=none;html=1;verticalAlign=middle;whiteSpace=wrap;rounded=0;" parent="1" vertex="1">
          <mxGeometry x="651" y="370" width="90" height="30" as="geometry" />
        </mxCell>
        <mxCell id="xxCL4NgvebpRf6q6_67u-58" value="" style="edgeStyle=elbowEdgeStyle;rounded=0;orthogonalLoop=1;jettySize=auto;elbow=vertical;html=1;strokeWidth=2;jumpStyle=none;jumpSize=0;shadow=0;flowAnimation=0;startArrow=none;startFill=0;endArrow=none;endFill=0;entryX=0;entryY=0.5;entryDx=0;entryDy=0;entryPerimeter=0;exitX=0.279;exitY=1;exitDx=0;exitDy=0;exitPerimeter=0;" parent="1" source="xxCL4NgvebpRf6q6_67u-75" target="xxCL4NgvebpRf6q6_67u-47" edge="1">
          <mxGeometry relative="1" as="geometry">
            <mxPoint x="268.3100000000001" y="204.65999999999997" as="sourcePoint" />
            <mxPoint x="182.69" y="345.34000000000003" as="targetPoint" />
            <Array as="points">
              <mxPoint x="352.69" y="251.62" />
            </Array>
          </mxGeometry>
        </mxCell>
        <mxCell id="xxCL4NgvebpRf6q6_67u-47" value="" style="strokeWidth=2;html=1;shape=mxgraph.flowchart.annotation_2;align=left;labelPosition=right;pointerEvents=1;rotation=-180;" parent="1" vertex="1">
          <mxGeometry x="121" y="290" width="40" height="110" as="geometry" />
        </mxCell>
        <mxCell id="xxCL4NgvebpRf6q6_67u-60" value="" style="edgeStyle=elbowEdgeStyle;rounded=0;orthogonalLoop=1;jettySize=auto;elbow=vertical;html=1;endArrow=none;endFill=0;strokeWidth=2;exitX=0;exitY=0.5;exitDx=0;exitDy=0;exitPerimeter=0;jumpStyle=sharp;" parent="1" source="xxCL4NgvebpRf6q6_67u-48" edge="1">
          <mxGeometry relative="1" as="geometry">
            <mxPoint x="521" y="344.22" as="sourcePoint" />
            <mxPoint x="341" y="250.5" as="targetPoint" />
            <Array as="points">
              <mxPoint x="521" y="250.5" />
            </Array>
          </mxGeometry>
        </mxCell>
        <mxCell id="xxCL4NgvebpRf6q6_67u-73" value="&lt;p style=&quot;line-height: 120%;&quot;&gt;&lt;/p&gt;&lt;div style=&quot;font-size: 20px;&quot; align=&quot;center&quot;&gt;&lt;font style=&quot;font-size: 22px;&quot;&gt;&amp;nbsp;&lt;font style=&quot;font-size: 22px;&quot;&gt;High Performance Data Network &lt;br&gt;&lt;/font&gt;&lt;/font&gt;&lt;font style=&quot;font-size: 20px;&quot;&gt;&lt;font style=&quot;font-size: 20px;&quot;&gt;(Omni-Path, InfiniBand&lt;/font&gt;)&lt;font style=&quot;font-size: 20px;&quot;&gt;&lt;font style=&quot;font-size: 20px;&quot;&gt;&lt;br&gt;&lt;/font&gt;&lt;/font&gt;&lt;/font&gt;&lt;/div&gt;" style="edgeLabel;html=1;align=center;verticalAlign=middle;resizable=0;points=[];spacing=5;spacingRight=5;labelBorderColor=none;spacingTop=-8;" parent="xxCL4NgvebpRf6q6_67u-60" vertex="1" connectable="0">
          <mxGeometry x="0.72" y="-3" relative="1" as="geometry">
            <mxPoint x="-29" y="15" as="offset" />
          </mxGeometry>
        </mxCell>
        <mxCell id="xxCL4NgvebpRf6q6_67u-48" value="" style="strokeWidth=2;html=1;shape=mxgraph.flowchart.annotation_2;align=left;labelPosition=right;pointerEvents=1;rotation=0;" parent="1" vertex="1">
          <mxGeometry x="541" y="290" width="39" height="110" as="geometry" />
        </mxCell>
        <mxCell id="xxCL4NgvebpRf6q6_67u-50" value="" style="endArrow=none;html=1;rounded=0;elbow=vertical;strokeWidth=2;" parent="1" edge="1">
          <mxGeometry width="50" height="50" relative="1" as="geometry">
            <mxPoint x="663" y="290" as="sourcePoint" />
            <mxPoint x="728" y="290" as="targetPoint" />
            <Array as="points">
              <mxPoint x="668" y="290" />
            </Array>
          </mxGeometry>
        </mxCell>
        <mxCell id="xxCL4NgvebpRf6q6_67u-66" value="" style="endArrow=none;html=1;rounded=0;elbow=vertical;strokeWidth=2;entryX=0.675;entryY=0.658;entryDx=0;entryDy=0;entryPerimeter=0;" parent="1" edge="1">
          <mxGeometry width="50" height="50" relative="1" as="geometry">
            <mxPoint x="290" y="151" as="sourcePoint" />
            <mxPoint x="540" y="151" as="targetPoint" />
          </mxGeometry>
        </mxCell>
        <mxCell id="xxCL4NgvebpRf6q6_67u-67" value="" style="endArrow=none;html=1;rounded=0;elbow=vertical;strokeWidth=2;" parent="1" edge="1">
          <mxGeometry width="50" height="50" relative="1" as="geometry">
            <mxPoint x="663" y="400" as="sourcePoint" />
            <mxPoint x="728" y="400" as="targetPoint" />
            <Array as="points">
              <mxPoint x="668" y="400.07" />
            </Array>
          </mxGeometry>
        </mxCell>
        <mxCell id="xxCL4NgvebpRf6q6_67u-68" value="&lt;div style=&quot;font-size: 24px;&quot; align=&quot;center&quot;&gt;&lt;font style=&quot;font-size: 24px;&quot;&gt;Object Storage Servers&amp;nbsp;&lt;/font&gt;&lt;/div&gt;&lt;div style=&quot;font-size: 24px;&quot; align=&quot;center&quot;&gt;&lt;font style=&quot;font-size: 20px;&quot;&gt;(OSSs)&lt;/font&gt;&lt;/div&gt;" style="text;strokeColor=none;align=center;fillColor=none;html=1;verticalAlign=middle;whiteSpace=wrap;rounded=0;" parent="1" vertex="1">
          <mxGeometry x="563" y="474" width="263.5" height="40" as="geometry" />
        </mxCell>
        <mxCell id="xxCL4NgvebpRf6q6_67u-69" value="&lt;div style=&quot;font-size: 24px;&quot; align=&quot;center&quot;&gt;&lt;font style=&quot;font-size: 24px;&quot;&gt;Lustre Clients&lt;/font&gt;&lt;/div&gt;&lt;div style=&quot;font-size: 20px;&quot; align=&quot;center&quot;&gt;&lt;font style=&quot;font-size: 20px;&quot;&gt;(1 &lt;/font&gt;‒&lt;font style=&quot;font-size: 20px;&quot;&gt; 100 000+)&lt;br&gt;&lt;/font&gt;&lt;/div&gt;" style="text;strokeColor=none;align=center;fillColor=none;html=1;verticalAlign=middle;whiteSpace=wrap;rounded=0;" parent="1" vertex="1">
          <mxGeometry y="474" width="150" height="44" as="geometry" />
        </mxCell>
        <mxCell id="xxCL4NgvebpRf6q6_67u-71" value="&lt;p style=&quot;line-height: 120%;&quot;&gt;&lt;/p&gt;&lt;div style=&quot;font-size: 22px;&quot; align=&quot;center&quot;&gt;&lt;font style=&quot;font-size: 22px;&quot;&gt;Management Server (MGS)&lt;br&gt;&lt;/font&gt;&lt;/div&gt;&lt;div style=&quot;font-size: 22px;&quot; align=&quot;center&quot;&gt;&lt;font style=&quot;font-size: 22px;&quot;&gt;Metadata Server (MDS)&lt;/font&gt;&lt;/div&gt;&lt;p&gt;&lt;/p&gt;" style="text;strokeColor=none;align=center;fillColor=none;html=1;verticalAlign=middle;whiteSpace=wrap;rounded=0;" parent="1" vertex="1">
          <mxGeometry x="109" y="56" width="285.25" height="45" as="geometry" />
        </mxCell>
        <mxCell id="xxCL4NgvebpRf6q6_67u-72" value="&lt;div style=&quot;font-size: 22px;&quot; align=&quot;center&quot;&gt;&lt;font style=&quot;font-size: 22px;&quot;&gt;Management Target (MGT)&lt;br&gt;&lt;/font&gt;&lt;/div&gt;&lt;div style=&quot;font-size: 22px;&quot; align=&quot;center&quot;&gt;&lt;font style=&quot;font-size: 22px;&quot;&gt;Metadata Target (MDT)&lt;br&gt;&lt;/font&gt;&lt;/div&gt;" style="text;strokeColor=none;align=center;fillColor=none;html=1;verticalAlign=middle;whiteSpace=wrap;rounded=0;" parent="1" vertex="1">
          <mxGeometry x="452.25" y="56" width="267.5" height="45" as="geometry" />
        </mxCell>
        <mxCell id="xxCL4NgvebpRf6q6_67u-74" value="&lt;div style=&quot;font-size: 24px;&quot; align=&quot;center&quot;&gt;&lt;font style=&quot;font-size: 24px;&quot;&gt;Co-located MGS and MDS share storage&lt;br&gt;&lt;/font&gt;&lt;/div&gt;" style="text;strokeColor=none;align=center;fillColor=none;html=1;verticalAlign=middle;whiteSpace=wrap;rounded=0;" parent="1" vertex="1">
          <mxGeometry x="185" width="463" height="30" as="geometry" />
        </mxCell>
        <mxCell id="xxCL4NgvebpRf6q6_67u-76" style="edgeStyle=elbowEdgeStyle;rounded=0;orthogonalLoop=1;jettySize=auto;elbow=vertical;html=1;exitX=0.5;exitY=0;exitDx=0;exitDy=0;" parent="1" source="xxCL4NgvebpRf6q6_67u-75" target="xxCL4NgvebpRf6q6_67u-75" edge="1">
          <mxGeometry relative="1" as="geometry" />
        </mxCell>
      </root>
    </mxGraphModel>
  </diagram>
</mxfile>
